<svg width="104" height="135" viewBox="0 0 104 135" fill="none" xmlns="http://www.w3.org/2000/svg">
<path d="M4.55078 48.0032V122.281C4.55078 126.302 7.8104 129.562 11.8314 129.562H38.0028C42.0238 129.562 45.2834 126.302 45.2834 122.281V48.0032C45.2834 43.9823 42.0238 40.7227 38.0028 40.7227H11.8314C7.81041 40.7227 4.55078 43.9823 4.55078 48.0032Z" stroke="black" stroke-width="9.10072" stroke-linecap="round"/>
<path d="M5.25293 60.3828H45.2833" stroke="black" stroke-width="9.10072" stroke-linecap="round"/>
<path d="M5.25293 77.9414H45.2833" stroke="black" stroke-width="9.10072" stroke-linecap="round"/>
<path d="M25.2695 40.7227L25.2695 129.562" stroke="black" stroke-width="9.10072" stroke-linecap="round"/>
<path d="M5.25293 95.4961H45.2833" stroke="black" stroke-width="9.10072" stroke-linecap="round"/>
<path d="M5.25293 113.055H45.2833" stroke="black" stroke-width="9.10072" stroke-linecap="round"/>
<path d="M58.2754 11.8314V122.277C58.2754 126.298 61.535 129.558 65.556 129.558H91.7274C95.7484 129.558 99.008 126.298 99.008 122.277V11.8314C99.008 7.81041 95.7484 4.55078 91.7274 4.55078H65.556C61.535 4.55078 58.2754 7.8104 58.2754 11.8314Z" stroke="black" stroke-width="9.10072" stroke-linecap="round"/>
<path d="M58.9775 24.2188H99.0079" stroke="black" stroke-width="9.10072" stroke-linecap="round"/>
<path d="M58.9775 41.7734H99.0079" stroke="black" stroke-width="9.10072" stroke-linecap="round"/>
<path d="M78.8184 4.55078L78.8184 129.292" stroke="black" stroke-width="9.10072" stroke-linecap="round"/>
<path d="M58.9775 59.3281H99.0079" stroke="black" stroke-width="9.10072" stroke-linecap="round"/>
<path d="M58.9775 76.8867H99.0079" stroke="black" stroke-width="9.10072" stroke-linecap="round"/>
<path d="M58.9775 112.004H99.0079" stroke="black" stroke-width="9.10072" stroke-linecap="round"/>
<path d="M58.627 94.4414H98.6573" stroke="black" stroke-width="9.10072" stroke-linecap="round"/>
<path d="M45.2825 8.41797H26.5784C22.5575 8.41797 19.2979 11.6776 19.2979 15.6985V29.8377" stroke="black" stroke-width="9.10072" stroke-linecap="round"/>
</svg>
