<?xml version="1.0" encoding="UTF-8"?>
<svg id="a" data-name="Layer 1" xmlns="http://www.w3.org/2000/svg" viewBox="0 0 2500 2500">
  <path d="M1250,0C559.6,0,0,559.6,0,1250s559.6,1250,1250,1250,1250-559.6,1250-1250S1940.4,0,1250,0ZM688.1,1811.9c-29.8,0-53.9-24.1-53.9-53.9,0-13.4,5.2-26.3,14.5-35.9l363.3-363.3c-203.4-124-340.4-341.1-340.4-588.2,0-366.4,297.3-663.7,663.7-663.7s663.7,297.3,663.7,663.7-297.3,663.7-663.7,663.7c-247.1,0-464.2-136.9-588.2-340.4l-363.3,363.3c-9.5,9.5-22.5,14.5-35.9,14.5Z" style="fill:#3c1e1e;"/>
  <path d="M1351.2,770.5c0-55.8-45.3-101.1-101.1-101.1s-101.1,45.3-101.1,101.1,45.3,101.1,101.1,101.1,101.1-45.3,101.1-101.1Z" style="fill:#3c1e1e;"/>
</svg>
