<svg width="128" height="142" viewBox="0 0 128 142" fill="none" xmlns="http://www.w3.org/2000/svg">
<path d="M57.2581 9.1312L8.51154 51.4657C5.24197 54.3052 3.36426 58.4229 3.36426 62.7533V123.491C3.36426 131.748 10.0577 138.441 18.3144 138.441H108.829C117.086 138.441 123.779 131.748 123.779 123.491V62.134C123.779 58.1657 122.202 54.3602 119.394 51.5559L77.6256 9.84077C72.0744 4.29657 63.1817 3.98677 57.2581 9.1312Z" stroke="black" stroke-width="6.72757" stroke-linecap="round"/>
<circle cx="73.7434" cy="46.3088" r="7.15757" fill="black" stroke="black" stroke-width="2.99003"/>
<path d="M42.5739 70.2975L47.8598 63.9546C51.369 59.7434 56.9015 57.7905 62.2768 58.8656L65.3534 59.4809C69.3328 60.2768 72.8176 62.6562 75.0077 66.0727L88.0127 86.3605C88.9811 87.8712 88.9637 89.8118 87.9683 91.3049C86.0874 94.1263 81.8844 93.9472 80.2503 90.9761L73.8839 79.4009C71.1601 74.4484 64.1855 74.0718 60.9443 78.7022C59.1048 81.33 59.1048 84.8277 60.9443 87.4555L65.2728 93.6391C67.0318 96.152 67.9753 99.1451 67.9753 102.212V117.993C67.9753 121.011 65.5285 123.458 62.5102 123.458C59.8387 123.458 57.5587 121.526 57.1195 118.891L54.6191 103.889C53.9398 99.8125 51.6035 96.1993 48.1652 93.9071L45.7661 92.3077C38.3717 87.3781 36.8846 77.1247 42.5739 70.2975Z" stroke="black" stroke-width="6.72757" stroke-linecap="round"/>
<path d="M44.1811 93.1758L33.4747 111.02C31.5226 114.273 33.8661 118.412 37.6603 118.412C39.456 118.412 41.1067 117.427 41.9581 115.845L50.6705 99.6652" stroke="black" stroke-width="6.72757" stroke-linecap="round"/>
<path d="M86.001 95.3398V122.019" stroke="black" stroke-width="6.72757" stroke-linecap="round"/>
</svg>
