<svg preserveAspectRatio="none" width="100%" height="100%" overflow="visible" style="display: block;" viewBox="0 0 134.507 111.194" fill="none" xmlns="http://www.w3.org/2000/svg">
<path id="Vector 136" d="M0 57.3769V8.24168C0 3.68993 3.68992 0 8.24168 0H22.1999C25.0624 0 26.379 3.56195 24.2046 5.42369C23.1029 6.36702 22.8079 7.95083 23.4961 9.22756L26.6898 15.1524C28.9883 19.4165 33.7583 21.7306 38.53 20.8964L72.9939 14.8716C75.8962 14.3642 78.8817 15.0157 81.3088 16.6859L128.765 49.3435C129.831 50.0767 130.747 51.006 131.465 52.0817L133.208 54.6944C135.963 58.8222 134.152 64.4397 129.504 66.1806C126.497 67.307 124.505 70.1809 124.505 73.3919V76.8453C124.505 81.0618 121.087 84.48 116.87 84.48C112.654 84.48 109.236 87.9344 109.236 92.1509C109.236 97.1711 104.518 100.902 99.6478 99.6856L98.1504 99.3116C93.9206 98.2553 89.6491 100.883 88.6843 105.134C87.5551 110.111 82.019 112.669 77.4975 110.303L61.7827 102.08L16.8776 70.0389C15.0677 68.7475 12.8998 68.0533 10.6764 68.0533C4.78001 68.0533 0 63.2733 0 57.3769Z" fill="var(--fill-0, #3182F6)"/>
</svg>
