<svg preserveAspectRatio="none" width="100%" height="100%" overflow="visible" style="display: block;" viewBox="0 0 119.587 64.6499" fill="none" xmlns="http://www.w3.org/2000/svg">
<path id="Vector 137" d="M40.297 23.9624L8.38286 30.5253C6.2816 30.9574 4.09838 30.3987 2.46305 29.0103C-1.61836 25.5451 -0.435985 18.9639 4.59634 17.1361L25.6111 9.50324L49.0742 0.714801C52.0826 -0.412066 55.4293 -0.198991 58.2706 1.30031L79.9528 12.7418C83.0877 14.396 86.819 14.4761 90.022 12.9578L103.518 6.56025C110.982 3.02212 119.587 8.46582 119.587 16.726V53.8973C119.587 59.8358 114.773 64.6499 108.834 64.6499C106.657 64.6499 104.53 63.9887 102.736 62.7537L48.9429 25.7158C46.4198 23.9786 43.2975 23.3454 40.297 23.9624Z" fill="var(--fill-0, #3182F6)"/>
</svg>
