<svg width="161" height="115" viewBox="0 0 161 115" fill="none" xmlns="http://www.w3.org/2000/svg">
<path d="M97.6064 88.4206H25.8548C13.5053 88.4206 3.49414 78.4256 3.49414 66.0762C3.49414 54.5119 3.49414 39.9028 3.49414 25.8499C3.49414 13.5005 13.5053 3.49219 25.8548 3.49219H134.719C147.069 3.49219 157.08 13.5034 157.08 25.8528V64.8294" stroke="black" stroke-width="6.98769" stroke-linecap="round"/>
<path d="M116.086 79.192L132.149 66.2211C132.668 65.802 133.411 65.8082 133.923 66.2359L149.45 79.2067C150.453 80.0442 149.86 81.6768 148.554 81.6768H132.374H116.964C115.646 81.6768 115.061 80.02 116.086 79.192Z" fill="#1D1B1B"/>
<path d="M132.374 81.6768H116.964C115.646 81.6768 115.061 80.02 116.086 79.192L132.149 66.2211C132.668 65.802 133.411 65.8082 133.923 66.2359L149.45 79.2067C150.453 80.0442 149.86 81.6768 148.554 81.6768H132.374ZM132.374 81.6768V112.008" stroke="black" stroke-width="5.59015" stroke-linecap="round"/>
<path d="M58.251 30.4531C58.251 32.4124 62.2833 46.4615 64.9845 55.5563C65.338 56.7467 66.95 56.9093 67.543 55.8182L80.0228 32.853C80.5669 31.8516 82.0165 31.8876 82.5103 32.9148L93.4824 55.7393C94.0207 56.859 95.6429 56.7723 96.0589 55.6017L104.995 30.4531" stroke="black" stroke-width="5.59015" stroke-linecap="round"/>
<path d="M48.9033 42.5859H113.009" stroke="black" stroke-width="5.59015" stroke-linecap="round"/>
</svg>
